<svg width="136" height="36" viewBox="0 0 136 36" fill="none" xmlns="http://www.w3.org/2000/svg">
<path d="M6.25503 0.000124983L0.000854492 10.8333L12.5083 10.8345L12.5098 10.8336L25.0187 10.834L18.7645 21.6671L37.5289 10.8334L31.2743 0L18.7639 0.000435547L6.25503 0.000124983Z" fill="#38E5FF"/>
<path opacity="0.3" d="M25.0186 10.834L18.7645 21.6671L37.5289 10.8334L31.2742 0L18.7639 0.000435547L25.0186 10.834Z" fill="white"/>
<path opacity="0.3" d="M18.7645 21.6671L37.529 10.8334L31.2743 0L18.7645 21.6671Z" fill="white"/>
<path opacity="0.3" d="M0.000854492 10.8333L31.2743 0L6.25503 0.000124983L0.000854492 10.8333Z" fill="white"/>
<path d="M0 25.166L6.25474 35.9995L18.7636 35.9999L31.274 35.9994L37.5281 25.1662L25.0192 25.1658L12.5088 25.1663L18.7645 14.3323L0 25.166Z" fill="#11D1ED"/>
<path opacity="0.3" d="M0 25.166L6.25474 35.9995L18.7636 35.9999L12.5088 25.1663L18.7645 14.3323L0 25.166Z" fill="white"/>
<path opacity="0.3" d="M0 25.166L6.25474 35.9995L18.7645 14.3323L0 25.166Z" fill="white"/>
<path opacity="0.3" d="M37.5281 25.1663L31.274 35.9995L6.25476 35.9996L37.5281 25.1663Z" fill="white"/>
<path d="M64.1689 10.256L52.7769 24.976H64.7449V28.72H47.5289V25.744L58.9209 11.024H47.8169V7.28003H64.1689V10.256Z" fill="#CAECF1"/>
<path d="M82.0057 15.888H82.0377C84.875 15.888 86.2937 17.3067 86.2937 20.144V28.72H82.4537V20.912C82.4537 19.9947 81.9737 19.536 81.0137 19.536H72.0217V28.72H68.1817V7.28003H72.0217V15.888H77.8777L82.4857 7.28003H86.7097L82.0057 15.888Z" fill="#CAECF1"/>
<path d="M114.706 7.28003V28.72H110.866V13.104L104.242 28.72H101.426L94.8342 13.104V28.72H90.9942V7.28003H96.3062L102.898 22.928L109.49 7.28003H114.706Z" fill="#CAECF1"/>
<path d="M119.744 28.72V7.28003H123.584V24.976H135.072V28.72H119.744Z" fill="#CAECF1"/>
</svg>
