<svg width="103" height="99" viewBox="0 0 103 99" fill="none" xmlns="http://www.w3.org/2000/svg">
<path d="M17.1673 0.000343021L0.00244141 29.7325L34.3298 29.7357L34.3337 29.7333L68.6649 29.7344L51.5001 59.4664L103 29.7328L85.8337 0L51.4985 0.00119538L17.1673 0.000343021Z" fill="#38E5FF"/>
<path opacity="0.3" d="M68.6648 29.7344L51.4999 59.4664L103 29.7328L85.8335 0L51.4984 0.00119538L68.6648 29.7344Z" fill="white"/>
<path opacity="0.3" d="M51.4999 59.4664L103 29.7328L85.8335 0L51.4999 59.4664Z" fill="white"/>
<path opacity="0.3" d="M0.00244141 29.7325L85.8337 0L17.1673 0.000343021L0.00244141 29.7325Z" fill="white"/>
<path d="M0 69.0693L17.1664 98.8025L51.4976 98.8035L85.8328 98.8022L102.997 69.07L68.6662 69.069L34.3311 69.0703L51.4998 39.3358L0 69.0693Z" fill="#05B7D1"/>
<path opacity="0.3" d="M0 69.0693L17.1664 98.8025L51.4976 98.8035L34.3311 69.0703L51.4998 39.3358L0 69.0693Z" fill="white"/>
<path opacity="0.3" d="M0 69.0693L17.1664 98.8025L51.4998 39.3358L0 69.0693Z" fill="white"/>
<path opacity="0.3" d="M102.997 69.0699L85.8328 98.8021L17.1664 98.8024L102.997 69.0699Z" fill="white"/>
</svg>
